<svg width="46.1556" height="67.6174" viewBox="0 0 46.1556 67.6174" fill="none" xmlns="http://www.w3.org/2000/svg">
<g id="Group 1321319247">
<path id="Vector" d="M24.6159 0.00288863C24.6604 0.00298198 21.5397 0 21.5397 0C9.51451 0.773397 0 10.4639 0 22.3333V45.2091C0 57.5834 10.3312 67.6174 23.0778 67.6174C35.8244 67.6174 46.1556 57.5834 46.1556 45.2091V22.3333C46.1556 10.461 36.6411 0.770511 24.6159 0V0.00288863ZM43.0793 22.3361V24.5438H24.6159V3.07916C34.9241 3.8439 43.0793 12.1781 43.0793 22.3361ZM3.07627 22.3361C3.07627 12.1781 11.2287 3.8439 21.5397 3.07916V24.5438H3.07627V22.3361ZM23.0778 64.544C12.0511 64.544 3.07627 55.8721 3.07627 45.2119V27.6201H43.0765V45.2119C43.0765 55.8721 34.1045 64.544 23.0749 64.544H23.0778Z" fill="white"/>
<path id="Ellipse 235 (Stroke)" d="M18 16C18 13.7909 16.2091 12 14 12C11.7909 12 10 13.7909 10 16C10 18.2091 11.7909 20 14 20C16.2091 20 18 18.2091 18 16ZM20 16C20 19.3137 17.3137 22 14 22C10.6863 22 8 19.3137 8 16C8 12.6863 10.6863 10 14 10C17.3137 10 20 12.6863 20 16Z" fill="white"/>
</g>
</svg>
